<svg width="256" height="256" viewBox="0 0 256 256" fill="none" xmlns="http://www.w3.org/2000/svg">
<defs><clipPath id="commitlint_tile"><rect width="256" height="256" rx="60"/></clipPath></defs>
<rect width="256" height="256" rx="60" fill="#000000"/>
<g clip-path="url(#commitlint_tile)">
<svg width="256" height="256" viewBox="0 0 180 180" preserveAspectRatio="xMidYMid slice">
<path fill="#CE3D40" d="M105.86 101.896h30v4.4h-30zm17.684 8.8 8.982 13.2h-5.075l-6.573-8.6-6.61 8.6h-5.075l8.983-13.2z"/>
<path fill="#50B2DD" d="M53.40 106.60L53.40 106.60Q50.60 106.60 48.42 105.63Q46.25 104.65 44.75 102.90Q43.25 101.15 42.48 98.65Q41.70 96.15 41.70 93.10L41.70 93.10Q41.70 90.05 42.50 87.55Q43.30 85.05 44.80 83.28Q46.30 81.50 48.45 80.55Q50.60 79.60 53.35 79.60L53.35 79.60Q57.10 79.60 59.45 81.25Q61.80 82.90 62.90 85.55L62.90 85.55L59.70 87.25Q59 85.25 57.38 84.15Q55.75 83.05 53.35 83.05L53.35 83.05Q51.60 83.05 50.23 83.63Q48.85 84.20 47.90 85.25Q46.95 86.30 46.48 87.75Q46 89.20 46 90.90L46 90.90L46 95.30Q46 97 46.48 98.45Q46.95 99.90 47.90 100.95Q48.85 102 50.25 102.58Q51.65 103.15 53.45 103.15L53.45 103.15Q56.05 103.15 57.75 101.95Q59.45 100.75 60.45 98.65L60.45 98.65L63.30 100.60Q62.15 103.20 59.73 104.90Q57.30 106.60 53.40 106.60ZM71.50 106L71.50 102.60L80.50 102.60L80.50 72.40L71.50 72.40L71.50 69L84.50 69L84.50 102.60L93.50 102.60L93.50 106L71.50 106Z"/>
</svg>
</g>
</svg>
