<svg width="256" height="256" viewBox="0 0 256 256" fill="none" xmlns="http://www.w3.org/2000/svg">
<rect width="256" height="256" rx="60" fill="#262626"/>
<svg x="28" y="28" width="200" height="200" viewBox="0 0 24 24" fill="#FFFFFF" preserveAspectRatio="xMidYMid meet">
<circle cx="12" cy="12" r="10" fill="#FFFFFF"/><path fill="#DA552F" d="M13.604 8.4h-3.405V12h3.405c.995 0 1.801-.806 1.801-1.801 0-.993-.805-1.799-1.801-1.799zM12 0C5.372 0 0 5.372 0 12s5.372 12 12 12 12-5.372 12-12S18.628 0 12 0zm1.604 14.4h-3.405V18H7.801V6h5.804c2.319 0 4.2 1.88 4.2 4.199 0 2.321-1.881 4.201-4.201 4.201z"/>
</svg>
</svg>
